# xmcd
#
# Track frame offsets:
#	150
#	18952
#	35031
#	50980
#	64908
#	81750
#	97391
#	116020
#	131312
#	148277
#
# Disc length: 2188 seconds
#
# Revision: 1
# Processed by: cddbd v1.5.2PL0 Copyright (c) Steve Scherf et al.
# Submitted via: EasyCDDAExtractor 15.3.0.1
#
DISCID=98088a0a
DTITLE=Nek - En El Cuarto 26
DYEAR=2007
DGENRE=Latin
TTITLE0=Noche De Febrero
TTITLE1=Vertigo
TTITLE2=Para Ti Seria
TTITLE3=Humo
TTITLE4=En El Cuarto 26
TTITLE5=A Contramano
TTITLE6=Instantes
TTITLE7=Tu
TTITLE8=Serenidad
TTITLE9=Darei Di Piu Di Tutto Quel Che Ho (Bonus Track In Italian)
EXTD=
EXTT0=
EXTT1=
EXTT2=
EXTT3=
EXTT4=
EXTT5=
EXTT6=
EXTT7=
EXTT8=
EXTT9=
PLAYORDER=
